<svg width="24" height="24" viewBox="0 0 24 24" fill="none" xmlns="http://www.w3.org/2000/svg">
<path d="M18.2745 17.4672L17.1977 15.5963C16.698 14.7621 16.4548 13.8075 16.4548 12.6773V10.9915C16.4548 8.83093 14.8297 6.96267 12.7215 6.47893V5.06667C12.7215 4.4784 12.2431 4 11.6548 4C11.0665 4 10.5881 4.4784 10.5881 5.06667V6.47893C8.47987 6.96267 6.8548 8.83093 6.8548 10.9915V12.6773C6.8548 13.808 6.6116 14.7627 6.1092 15.6005L5.0356 17.4672C4.98813 17.5493 4.98813 17.6512 5.0356 17.7333C5.0836 17.816 5.17107 17.8667 5.26653 17.8667H18.0436C18.1391 17.8667 18.2271 17.816 18.2745 17.7333C18.322 17.6512 18.322 17.5493 18.2745 17.4672Z" fill="#8493A8"/>
<path d="M11.6546 19.9999C12.5394 19.9999 13.2583 19.2831 13.2647 18.3999H10.0439C10.0503 19.2831 10.7698 19.9999 11.6546 19.9999Z" fill="#8493A8"/>
<circle cx="16" cy="8" r="2" fill="#FF5B5B"/>
</svg>
