<svg width="24" height="24" viewBox="0 0 24 24" fill="none" xmlns="http://www.w3.org/2000/svg">
<path d="M12 20C7.58887 20 4 16.4111 4 12C4 7.58887 7.58887 4 12 4C16.4111 4 20 7.58887 20 12C20 16.4111 16.4111 20 12 20ZM12 4.69565C7.97217 4.69565 4.69565 7.97217 4.69565 12C4.69565 16.0278 7.97217 19.3043 12 19.3043C16.0278 19.3043 19.3043 16.0278 19.3043 12C19.3043 7.97217 16.0278 4.69565 12 4.69565Z" fill="#EB6641" stroke="#EB6641" stroke-width="0.5"/>
<path d="M10.9565 15.4783C10.8675 15.4783 10.7784 15.4442 10.7102 15.3767L7.23199 11.8984C7.09634 11.7628 7.09634 11.5423 7.23199 11.4066C7.36764 11.271 7.58816 11.271 7.72381 11.4066L10.9565 14.6386L16.2755 9.31965C16.4111 9.184 16.6316 9.184 16.7673 9.31965C16.9029 9.4553 16.9029 9.67582 16.7673 9.81148L11.2021 15.3767C11.1346 15.4442 11.0456 15.4783 10.9565 15.4783Z" fill="#EB6641" stroke="#EB6641" stroke-width="0.5"/>
</svg>
