<svg width="24" height="24" viewBox="0 0 24 24" fill="none" xmlns="http://www.w3.org/2000/svg">
<path d="M20.9999 4.39999H15.0999V2.99999C15.0999 2.11799 14.3819 1.39999 13.4999 1.39999H10.4999C9.6179 1.39999 8.8999 2.11799 8.8999 2.99999V4.39999H2.9999C2.6679 4.39999 2.3999 4.66799 2.3999 4.99999C2.3999 5.33199 2.6679 5.59999 2.9999 5.59999H4.3999V19C4.3999 20.985 6.0149 22.6 7.9999 22.6H15.9999C17.9849 22.6 19.5999 20.985 19.5999 19V5.59999H20.9999C21.3319 5.59999 21.5999 5.33099 21.5999 4.99999C21.5999 4.66899 21.3319 4.39999 20.9999 4.39999ZM10.0999 2.99999C10.0999 2.77899 10.2789 2.59999 10.4999 2.59999H13.4999C13.7209 2.59999 13.8999 2.77899 13.8999 2.99999V4.39999H10.0999V2.99999ZM18.3999 19C18.3999 20.323 17.3229 21.4 15.9999 21.4H7.9999C6.6769 21.4 5.5999 20.323 5.5999 19V5.59999H18.3999V19ZM8.8999 18V8.99999C8.8999 8.66799 9.1689 8.39999 9.4999 8.39999C9.8309 8.39999 10.0999 8.66899 10.0999 8.99999V18C10.0999 18.332 9.8309 18.6 9.4999 18.6C9.1689 18.6 8.8999 18.332 8.8999 18ZM13.8999 18V8.99999C13.8999 8.66799 14.1689 8.39999 14.4999 8.39999C14.8309 8.39999 15.0999 8.66899 15.0999 8.99999V18C15.0999 18.332 14.8309 18.6 14.4999 18.6C14.1689 18.6 13.8999 18.332 13.8999 18Z" fill="#8493A8"/>
</svg>
