<svg width="24" height="24" viewBox="0 0 24 24" fill="none" xmlns="http://www.w3.org/2000/svg">
<path d="M11.9998 17.7999C7.37142 17.7999 3.24045 12.8026 3.06705 12.5896C2.97765 12.4786 2.97765 12.3208 3.06705 12.2098C3.24045 11.9974 7.37142 7 11.9998 7C17.3937 7 20.8065 12.0196 20.9493 12.2338C21.0225 12.3436 21.0153 12.4876 20.9325 12.5902C20.7591 12.8026 16.6281 17.7999 11.9998 17.7999ZM3.69524 12.4C4.49804 13.3126 8.14781 17.1999 11.9998 17.1999C15.8793 17.1999 19.5465 13.2646 20.3187 12.3838C19.6527 11.4868 16.5063 7.6 11.9998 7.6C8.14361 7.6 4.49804 11.4874 3.69524 12.4Z" fill="#54657E" stroke="#54657E" stroke-width="0.4"/>
<path d="M12 15.3999C10.3458 15.3999 9 14.0541 9 12.4C9 10.7458 10.3458 9.39998 12 9.39998C13.6542 9.39998 15 10.7458 15 12.4C15 14.0541 13.6542 15.3999 12 15.3999ZM12 9.99997C10.6764 9.99997 9.6 11.0764 9.6 12.4C9.6 13.7235 10.6764 14.7999 12 14.7999C13.3236 14.7999 14.4 13.7235 14.4 12.4C14.4 11.0764 13.3236 9.99997 12 9.99997Z" fill="#54657E" stroke="#54657E" stroke-width="0.4"/>
</svg>
