<svg width="24" height="24" viewBox="0 0 24 24" fill="none" xmlns="http://www.w3.org/2000/svg">
<path d="M9.16553 7.80987H11.7814V5.0986C10.7156 5.24649 9.74682 6.2817 9.16553 7.80987Z" fill="white"/>
<path d="M11.781 11.7535V8.3028H8.97143C8.63234 9.28871 8.43858 10.4718 8.39014 11.7535H11.781Z" fill="white"/>
<path d="M15.6565 11.7535C15.6565 10.4718 15.4143 9.28871 15.0752 8.3028H12.2656V11.7535H15.6565Z" fill="white"/>
<path d="M12.2656 5.0986V7.80987H14.8815C14.3002 6.2817 13.3313 5.24649 12.2656 5.0986Z" fill="white"/>
<path d="M15.7041 15.2042H18.2715C18.7075 14.3169 18.9981 13.331 18.9981 12.2465H16.0916C16.0916 13.2817 15.9463 14.3169 15.7041 15.2042Z" fill="white"/>
<path d="M11.781 12.2465H8.39014C8.39014 13.331 8.53546 14.3169 8.77767 15.2042H11.7326V12.2465H11.781Z" fill="white"/>
<path d="M7.90599 11.7535C7.90599 10.5211 8.1482 9.33801 8.43884 8.3028H6.01678C5.38704 9.33801 5.04795 10.4718 4.99951 11.7535H7.90599Z" fill="white"/>
<path d="M7.90599 12.2465H4.99951C5.04795 13.331 5.29016 14.3169 5.72613 15.2042H8.29352C8.09976 14.3169 7.95443 13.2817 7.90599 12.2465Z" fill="white"/>
<path d="M8.48701 15.6972H6.06494C7.08221 17.4225 8.77765 18.6549 10.7637 19C9.79492 18.4577 8.97142 17.2746 8.48701 15.6972Z" fill="white"/>
<path d="M8.63221 7.80986C9.11662 6.47887 9.89168 5.49296 10.7636 5C8.92286 5.29577 7.37274 6.38028 6.35547 7.80986H8.63221Z" fill="white"/>
<path d="M15.5599 15.6972C15.0755 17.2746 14.252 18.4577 13.2832 19C15.2693 18.6056 16.9647 17.3732 17.982 15.6972H15.5599Z" fill="white"/>
<path d="M11.7813 18.9014V15.6972H8.97168C9.55298 17.5211 10.6187 18.7042 11.7813 18.9014Z" fill="white"/>
<path d="M15.4146 7.80986H17.6914C16.6741 6.38028 15.0755 5.29577 13.2832 5C14.1551 5.49296 14.8818 6.47887 15.4146 7.80986Z" fill="white"/>
<path d="M15.5601 8.3028C15.8991 9.33801 16.0929 10.5211 16.0929 11.7535H18.9994C18.951 10.4718 18.6119 9.33801 17.9821 8.3028H15.5601Z" fill="white"/>
<path d="M15.0752 15.6972H12.2656V18.9014C13.4282 18.7042 14.4939 17.5211 15.0752 15.6972Z" fill="white"/>
<path d="M12.2656 12.2465V15.2042H15.2205C15.4628 14.3169 15.6081 13.331 15.6081 12.2465H12.2656Z" fill="white"/>
</svg>
