<svg width="24" height="27" viewBox="0 0 24 27" fill="none" xmlns="http://www.w3.org/2000/svg">
<rect width="24" height="27" fill="white"/>
<path fill-rule="evenodd" clip-rule="evenodd" d="M21.3585 12.2754V9.62916H19.4717V12.2754H16.7547V14.1656H19.4717V16.8875H21.3585V14.1656H24V12.2754H21.3585ZM7.62264 12.1242V15.1485C7.62264 15.1485 10.5512 15.1446 11.7437 15.1446C11.098 17.1052 10.0939 18.1728 7.62264 18.1728C5.12173 18.1728 3.16981 16.1418 3.16981 13.6364C3.16981 11.131 5.12173 9.09991 7.62264 9.09991C8.9449 9.09991 9.79887 9.5655 10.5822 10.2144C11.2092 9.58629 11.1568 9.49677 12.7521 7.98757C11.3979 6.75275 9.59803 6 7.62264 6C3.41275 6 0 9.4189 0 13.6364C0 17.8538 3.41275 21.2727 7.62264 21.2727C13.9152 21.2727 15.4533 15.7836 14.9434 12.1242H7.62264Z" fill="#F93F2D"/>
</svg>
