<svg width="24" height="24" viewBox="0 0 24 24" fill="none" xmlns="http://www.w3.org/2000/svg">
<path d="M17.25 10.5382V7.875C17.25 5.187 15.063 3 12.375 3C9.687 3 7.5 5.187 7.5 7.875V10.5382C6.645 10.7122 6 11.4705 6 12.375V19.125C6 20.1585 6.84075 21 7.875 21H16.875C17.9093 21 18.75 20.1585 18.75 19.125V12.375C18.75 11.4698 18.105 10.7122 17.25 10.5382ZM8.25 7.875C8.25 5.60025 10.101 3.75 12.375 3.75C14.649 3.75 16.5 5.60025 16.5 7.875V10.5H15.75V7.875C15.75 6.01425 14.2358 4.5 12.375 4.5C10.5142 4.5 9 6.01425 9 7.875V10.5H8.25V7.875ZM15 7.875V10.5H9.75V7.875C9.75 6.4275 10.9275 5.25 12.375 5.25C13.8225 5.25 15 6.4275 15 7.875ZM18 19.125C18 19.7453 17.4952 20.25 16.875 20.25H7.875C7.25475 20.25 6.75 19.7453 6.75 19.125V12.375C6.75 11.7548 7.25475 11.25 7.875 11.25H16.875C17.4952 11.25 18 11.7548 18 12.375V19.125ZM12.375 12.75C11.3408 12.75 10.5 13.5915 10.5 14.625C10.5 15.3375 10.9162 15.9848 11.5433 16.2983L11.2537 18.3225C11.238 18.4298 11.2702 18.5392 11.3415 18.621C11.4127 18.7027 11.5163 18.75 11.625 18.75H13.125C13.2337 18.75 13.3373 18.702 13.4085 18.6202C13.4798 18.5385 13.512 18.4298 13.4963 18.3218L13.2067 16.2975C13.8338 15.9847 14.25 15.3375 14.25 14.625C14.25 13.5915 13.4092 12.75 12.375 12.75ZM12.6885 15.6982C12.51 15.7507 12.3967 15.927 12.423 16.1115L12.693 18H12.057L12.327 16.1115C12.354 15.927 12.24 15.7507 12.0615 15.6982C11.5762 15.5565 11.25 15.1252 11.25 14.625C11.25 14.0048 11.7547 13.5 12.375 13.5C12.9953 13.5 13.5 14.0048 13.5 14.625C13.5 15.1252 13.1738 15.5565 12.6885 15.6982Z" fill="#54657E" stroke="#54657E" stroke-width="0.2"/>
</svg>
