<svg width="24" height="24" viewBox="0 0 24 24" fill="none" xmlns="http://www.w3.org/2000/svg">
<path d="M18.3333 17.6667H5.66667C4.748 17.6667 4 16.9187 4 16V8.66665C4 7.74798 4.748 6.99998 5.66667 6.99998H18.3333C19.252 6.99998 20 7.74798 20 8.66665V16C20 16.9187 19.252 17.6667 18.3333 17.6667ZM5.66667 7.66665C5.11533 7.66665 4.66667 8.11532 4.66667 8.66665V16C4.66667 16.5513 5.11533 17 5.66667 17H18.3333C18.8847 17 19.3333 16.5513 19.3333 16V8.66665C19.3333 8.11532 18.8847 7.66665 18.3333 7.66665H5.66667Z" fill="#54657E" stroke="#54657E" stroke-width="0.3"/>
<path d="M12 13.0113C11.6334 13.0113 11.266 12.902 10.946 12.6827L5.47869 8.942C5.32669 8.838 5.28802 8.63067 5.39136 8.47867C5.49469 8.32667 5.70202 8.28734 5.85469 8.392L11.322 12.1327C11.7334 12.414 12.2654 12.414 12.6774 12.1327L18.1447 8.392C18.2974 8.28867 18.5047 8.32667 18.608 8.47867C18.712 8.63067 18.6734 8.838 18.5214 8.942L13.054 12.6827C12.734 12.902 12.3667 13.0113 12 13.0113Z" fill="#54657E" stroke="#54657E" stroke-width="0.3"/>
<path d="M5.66649 16.3333C5.57049 16.3333 5.47582 16.2926 5.40982 16.2133C5.29182 16.072 5.31116 15.8613 5.45249 15.7433L9.45249 12.41C9.59382 12.2926 9.80449 12.312 9.92249 12.4526C10.0405 12.594 10.0212 12.8046 9.87982 12.9226L5.87982 16.256C5.81782 16.308 5.74182 16.3333 5.66649 16.3333Z" fill="#54657E" stroke="#54657E" stroke-width="0.3"/>
<path d="M18.3333 16.3333C18.258 16.3333 18.1826 16.308 18.12 16.256L14.12 12.9226C13.9786 12.8046 13.9593 12.5946 14.0773 12.4526C14.1953 12.312 14.4053 12.2926 14.5473 12.41L18.5473 15.7433C18.6886 15.8613 18.708 16.0713 18.59 16.2133C18.5233 16.2926 18.4286 16.3333 18.3333 16.3333Z" fill="#54657E" stroke="#54657E" stroke-width="0.3"/>
</svg>
