<svg width="20" height="20" viewBox="0 0 20 20" fill="none" xmlns="http://www.w3.org/2000/svg">
<path d="M18.8241 17.9757L13.1805 12.3321C14.1897 11.1321 14.7999 9.58653 14.7999 7.89994C14.7999 4.09537 11.7045 1 7.89994 1C4.09537 1 1 4.09537 1 7.89994C1 11.7045 4.09537 14.7999 7.89994 14.7999C9.58653 14.7999 11.1321 14.1897 12.3321 13.1805L17.9757 18.8241C18.0927 18.941 18.2463 18.9998 18.3999 18.9998C18.5535 18.9998 18.7071 18.941 18.8241 18.8241C19.0587 18.5895 19.0587 18.2103 18.8241 17.9757ZM7.89994 13.5999C4.75717 13.5999 2.19999 11.0427 2.19999 7.89994C2.19999 4.75717 4.75717 2.19999 7.89994 2.19999C11.0427 2.19999 13.5999 4.75717 13.5999 7.89994C13.5999 11.0427 11.0427 13.5999 7.89994 13.5999Z" fill="white" stroke="white"/>
</svg>
