<svg width="24" height="24" viewBox="0 0 24 24" fill="none" xmlns="http://www.w3.org/2000/svg">
<path d="M11.5 21C6.81328 21 3 17.1867 3 12.5C3 7.81328 6.81328 4 11.5 4C16.1867 4 20 7.81328 20 12.5C20 17.1867 16.1867 21 11.5 21ZM11.5 4.58621C7.13628 4.58621 3.58621 8.13628 3.58621 12.5C3.58621 16.8637 7.13628 20.4138 11.5 20.4138C15.8637 20.4138 19.4138 16.8637 19.4138 12.5C19.4138 8.13628 15.8637 4.58621 11.5 4.58621Z" fill="#54657E" stroke="#54657E" stroke-width="0.4"/>
<path d="M15.8963 17.4828C15.7345 17.4828 15.6032 17.3515 15.6032 17.1897C15.6032 14.7652 13.7625 12.7932 11.4997 12.7932C9.23696 12.7932 7.39627 14.7652 7.39627 17.1897C7.39627 17.3515 7.26496 17.4828 7.10316 17.4828C6.94137 17.4828 6.81006 17.3515 6.81006 17.1897C6.81006 14.4422 8.91396 12.207 11.4997 12.207C14.0855 12.207 16.1894 14.4422 16.1894 17.1897C16.1894 17.3515 16.0581 17.4828 15.8963 17.4828Z" fill="#54657E" stroke="#54657E" stroke-width="0.4"/>
<path d="M11.5001 11.0344C10.2069 11.0344 9.15527 9.98273 9.15527 8.68955C9.15527 7.39638 10.2069 6.34473 11.5001 6.34473C12.7933 6.34473 13.8449 7.39638 13.8449 8.68955C13.8449 9.98273 12.7933 11.0344 11.5001 11.0344ZM11.5001 6.93093C10.5305 6.93093 9.74148 7.71997 9.74148 8.68955C9.74148 9.65914 10.5305 10.4482 11.5001 10.4482C12.4697 10.4482 13.2587 9.65914 13.2587 8.68955C13.2587 7.71997 12.4697 6.93093 11.5001 6.93093Z" fill="#54657E" stroke="#54657E" stroke-width="0.4"/>
</svg>
